<svg width="91" height="78" viewBox="0 0 91 78" fill="none" xmlns="http://www.w3.org/2000/svg">
<path d="M29.9944 46.9592C28.0837 46.9592 26.4454 47.8298 25.1226 49.6073C23.7997 51.3849 23.1491 53.5366 23.1491 56.0989C23.1491 58.6611 23.8213 60.8549 25.1226 62.6133C26.4238 64.3718 28.0621 65.2653 29.9944 65.2653C31.7777 65.2653 33.3259 64.3756 34.635 62.6171C35.9441 60.8587 36.6084 58.6879 36.6084 56.1027C36.6084 53.5175 35.9363 51.3658 34.635 49.6112C33.3338 47.8565 31.7856 46.9592 29.9944 46.9592ZM62.8118 46.9592C60.9226 46.9592 59.2627 47.8298 57.9399 49.6073C56.6171 51.3849 55.9665 53.5366 55.9665 56.0989C55.9665 58.6611 56.6387 60.8549 57.9399 62.6133C59.2412 64.3718 60.9011 65.2653 62.8118 65.2653C64.5971 65.2653 66.1433 64.3756 67.4739 62.6171C68.8046 60.8587 69.4474 58.6879 69.4474 56.1027C69.4474 53.5175 68.7752 51.3658 67.4739 49.6112C66.1727 47.8565 64.6186 46.9592 62.8118 46.9592Z" fill="white"/>
<path d="M84.0537 21.9375C84.0328 21.9375 84.6016 19.0331 84.1143 13.9744C83.6669 8.91187 82.5977 4.26562 80.844 0C80.844 0 79.9492 0.163125 78.2429 0.58875C76.5367 1.01437 73.7479 1.875 69.9354 3.59625C66.1779 5.32125 62.2175 7.61625 58.094 10.4006C55.2901 9.6075 51.106 9.2025 45.5 9.2025C40.1575 9.2025 35.9734 9.6075 32.906 10.4006C23.8477 4.12313 16.2574 0.65625 10.1351 0C8.38969 4.26625 7.30654 8.93812 6.88567 14.0156C6.39844 19.0781 6.96719 21.9994 6.96719 21.9994C2.03044 27.3412 0 35.04 0 41.3962C0 46.3125 0.142188 50.76 1.23988 54.7087C2.37738 58.6294 3.81821 61.8338 5.52446 64.2975C7.28981 66.7889 9.4587 68.9751 11.9437 70.7681C14.4823 72.6581 16.8179 74.0194 18.9318 74.8725C21.0646 75.765 23.4818 76.4156 26.244 76.8825C28.2912 77.2743 30.36 77.546 32.4396 77.6963C32.4396 77.6963 38.1271 78 45.5209 78C52.9146 78 58.5812 77.6963 58.5812 77.6963C60.6607 77.541 62.7294 77.2668 64.7768 76.875C67.2755 76.476 69.7211 75.8018 72.0682 74.865C74.1821 73.9912 76.5177 72.6506 79.0828 70.7606C81.5668 68.9702 83.7296 66.7805 85.4812 64.2825C87.1875 61.8244 88.6283 58.6144 89.7658 54.6938C90.9033 50.7731 91 46.2919 91 41.3756C91 35.2219 88.9696 27.4219 84.0537 21.9375ZM70.7696 69.3881C65.101 72.0488 56.7726 73.125 45.7237 73.125H45.2971C34.2463 73.125 25.9179 72.0694 20.3537 69.3881C14.7894 66.7069 11.9646 61.2413 11.9646 52.995C11.9646 48.06 13.7107 44.0588 17.144 40.995C18.6474 39.6825 20.475 38.76 22.75 38.2125C25.025 37.665 27.0971 37.65 29.0461 37.7044C30.9571 37.785 33.6378 38.1506 37.0294 38.415C40.4211 38.6794 42.9804 39.0244 45.5209 39.0244C47.8963 39.0244 51.0453 38.6175 56.1034 38.2125C61.1615 37.8075 64.9399 37.6031 67.376 38.0081C69.8747 38.415 72.0492 39.2681 73.8977 40.995C77.4922 44.2038 79.2932 48.2038 79.3008 52.995C79.28 61.2413 76.4154 66.7275 70.7696 69.3881Z" fill="white"/>
</svg>
